<svg width="20" height="16" viewBox="0 0 20 16" fill="none" xmlns="http://www.w3.org/2000/svg">
<path id="Vector" d="M4.70933 3.21784C6.09369 2.20711 7.86868 1.43748 9.99991 1.43748C12.5249 1.43748 14.5467 2.51677 16.0186 3.79879C17.4811 5.07026 18.4592 6.56731 18.9217 7.63957C19.0248 7.87101 19.0248 8.12882 18.9217 8.36026C18.503 9.30654 17.6623 10.6395 16.4249 11.829L19.7123 14.243C20.0373 14.4832 20.0967 14.9256 19.8405 15.2303C19.5842 15.535 19.1123 15.5907 18.7873 15.3504L0.287367 1.75652C-0.0386303 1.51688 -0.0957861 1.07509 0.159743 0.769406C0.415303 0.463784 0.886549 0.410201 1.2128 0.649759L4.70933 3.21784ZM6.97181 4.87983L9.79366 6.95403C9.92491 6.70501 9.99991 6.42376 9.99991 6.09857C9.99991 5.78802 9.87804 5.47162 9.73741 5.19916C9.82491 5.19037 9.91241 5.16108 9.99991 5.16108C11.6561 5.16108 12.9999 6.42083 12.9999 7.97355C12.9999 8.40128 12.9093 8.78213 12.7218 9.12783L13.9561 10.0126C14.303 9.41494 14.4999 8.7294 14.4999 7.97355C14.4999 5.67084 12.4843 3.75484 9.99991 3.75484C8.83429 3.75484 7.76868 4.19722 6.97181 4.87983ZM9.99991 14.5623C7.47493 14.5623 5.45307 13.4842 3.98121 12.201C2.51935 10.9032 1.54186 9.40615 1.07686 8.36026C1.02611 8.24608 0.999986 8.12361 0.999986 7.99992C0.999986 7.87622 1.02611 7.75375 1.07686 7.63957C1.37498 6.96868 1.88404 6.1015 2.59653 5.23139L5.5437 7.40812C5.51557 7.60148 5.49995 7.79777 5.49995 7.97355C5.49995 10.329 7.51556 12.2186 9.99991 12.2186C10.5843 12.2186 11.1437 12.1132 11.6561 11.9227L13.9436 13.6102C12.8093 14.1844 11.4936 14.5623 9.99991 14.5623Z" fill="black"/>
</svg>
