<svg width="24" height="25" viewBox="0 0 24 25" fill="none" xmlns="http://www.w3.org/2000/svg">
<g id="emojione:flag-for-france">
<path id="Vector" d="M0.712524 12.5C0.712524 17.4125 3.86252 21.575 8.21252 23.1125V1.88751C3.86252 3.42501 0.712524 7.58751 0.712524 12.5Z" fill="#428BC1"/>
<path id="Vector_2" d="M23.2125 12.5C23.2125 7.58751 20.1 3.42501 15.7125 1.88751V23.1125C20.1 21.575 23.2125 17.4125 23.2125 12.5Z" fill="#ED4C5C"/>
<path id="Vector_3" d="M8.21252 23.1125C9.37502 23.525 10.65 23.75 11.9625 23.75C13.275 23.75 14.55 23.525 15.7125 23.1125V1.8875C14.55 1.475 13.3125 1.25 11.9625 1.25C10.6125 1.25 9.37502 1.475 8.21252 1.8875V23.1125Z" fill="white"/>
</g>
</svg>
