<svg width="35" height="35" viewBox="0 0 35 35" fill="none" xmlns="http://www.w3.org/2000/svg">
<g id="manchester-united-logo-svgrepo-com 1" clip-path="url(#clip0_1_852)">
<path id="Vector" fill-rule="evenodd" clip-rule="evenodd" d="M0 0H35V35H0V0Z" fill="white"/>
<path id="Vector_2" fill-rule="evenodd" clip-rule="evenodd" d="M19.0723 32.2653C18.9465 32.6426 18.5365 33.5668 17.547 33.5668C16.4233 33.5668 16.0311 32.3493 16.012 32.2994L15.9799 32.1826C15.9799 32.1826 16.9484 32.2631 17.4817 32.2631C18.015 32.2631 18.9259 32.2113 19.0752 32.1826L19.0723 32.2653Z" fill="black"/>
<path id="Vector_3" fill-rule="evenodd" clip-rule="evenodd" d="M22.0222 31.665L22.2544 31.6958C21.9788 32.414 21.4841 33.2191 20.5123 33.2191C19.5718 33.2191 19.1055 32.674 18.9065 32.3074L18.744 32.2077C18.7441 32.2075 20.3709 32.154 22.0222 31.665ZM13.1053 31.665L12.8734 31.6958C13.1485 32.414 13.6435 33.2191 14.6156 33.2191C15.556 33.2191 16.0641 32.6435 16.2725 32.3074L16.3835 32.2077C16.3833 32.2075 14.7569 32.154 13.1053 31.665Z" fill="black"/>
<path id="Vector_4" fill-rule="evenodd" clip-rule="evenodd" d="M18.3355 32.3401C18.1833 32.5607 18.0816 32.5503 17.8979 32.5503C17.806 32.5503 17.668 32.6266 17.6724 32.7646C17.6753 32.8728 17.7635 32.9633 17.9135 32.9633C18.2454 32.9633 18.4984 32.4993 18.5695 32.3032C18.5695 32.3032 18.766 32.2947 18.8234 32.2891C18.8234 32.2891 18.4713 33.3369 17.5591 33.3369C16.6448 33.3369 16.2726 32.3003 16.2726 32.3003C16.2726 32.3003 17.0417 32.3479 17.4826 32.3479C17.9235 32.3479 18.2035 32.3459 18.3355 32.3401ZM21.9006 31.8791C21.3041 32.0398 20.8806 32.1696 19.8794 32.2914C19.8794 32.2914 19.9107 32.3949 20.1284 32.3833C20.2121 32.3791 20.2228 32.3584 20.2538 32.3528C20.3156 32.3415 20.4105 32.4064 20.3993 32.5153C20.3911 32.5912 20.3259 32.6873 20.1042 32.6873C19.8825 32.6873 19.6234 32.5057 19.4932 32.3375C19.4932 32.3375 19.3599 32.368 19.2223 32.3759C19.2223 32.3759 19.6483 32.9727 20.4888 32.9727C21.4137 32.9729 21.7551 32.1465 21.9006 31.8791Z" fill="#FFF22D"/>
<path id="Vector_5" fill-rule="evenodd" clip-rule="evenodd" d="M21.2802 32.4625C21.2802 32.3178 21.2356 32.1838 21.1597 32.0728C20.8359 32.1491 20.4657 32.219 19.9233 32.2863C19.9194 32.3025 19.9159 32.3187 19.9126 32.335C19.9453 32.3615 20.0087 32.39 20.1283 32.3837C20.212 32.3795 20.2227 32.3588 20.2538 32.3532C20.3155 32.3419 20.4105 32.4067 20.3992 32.5157C20.391 32.5916 20.3259 32.6876 20.1042 32.6876C20.0471 32.6876 19.987 32.6756 19.9278 32.6546C19.9569 32.7554 20.0083 32.8465 20.0764 32.9224C20.2111 32.9565 20.3496 32.9735 20.4886 32.9731C20.7851 32.9731 21.0213 32.8883 21.2107 32.7639C21.2566 32.67 21.2803 32.5669 21.2802 32.4625Z" fill="#FADE2F"/>
<path id="Vector_6" fill-rule="evenodd" clip-rule="evenodd" d="M21.2708 32.4625C21.271 32.324 21.2288 32.1889 21.1499 32.0752C20.8303 32.1496 20.4652 32.2184 19.9339 32.2847C19.9288 32.3033 19.9247 32.3222 19.9215 32.3412C19.9562 32.3657 20.0187 32.3895 20.1287 32.3833C20.2124 32.3791 20.2231 32.3584 20.2542 32.3528C20.3159 32.3415 20.4109 32.4064 20.3996 32.5153C20.3914 32.5912 20.3262 32.6873 20.1045 32.6873C20.051 32.6873 19.9949 32.6765 19.9393 32.6582C19.9698 32.7597 20.023 32.8509 20.0936 32.9264C20.2131 32.9555 20.3451 32.9729 20.4891 32.9729C20.7775 32.9729 21.009 32.8928 21.1956 32.7739C21.245 32.6775 21.2708 32.5708 21.2708 32.4625Z" fill="#FBE02F"/>
<path id="Vector_7" fill-rule="evenodd" clip-rule="evenodd" d="M21.2611 32.4625C21.2611 32.3192 21.2165 32.1863 21.1398 32.0773C20.825 32.1507 20.4638 32.2184 19.944 32.2838C19.9383 32.3043 19.9333 32.3255 19.9298 32.347C19.9659 32.3693 20.027 32.3887 20.1285 32.3835C20.2122 32.3793 20.2229 32.3586 20.2539 32.353C20.3157 32.3417 20.4106 32.4065 20.3994 32.5155C20.3912 32.5914 20.326 32.6874 20.1043 32.6874C20.0519 32.6867 19.9998 32.6781 19.95 32.6618C19.9816 32.7637 20.0369 32.8554 20.1099 32.9304C20.2252 32.9569 20.3514 32.9729 20.4887 32.9729C20.7689 32.9729 20.9955 32.897 21.1792 32.7838C21.2332 32.6854 21.2614 32.5748 21.2611 32.4625Z" fill="#FCE22F"/>
<path id="Vector_8" fill-rule="evenodd" clip-rule="evenodd" d="M13.2275 31.8791C13.8237 32.0398 14.2473 32.1696 15.2485 32.2914C15.2485 32.2914 15.2173 32.3949 14.9996 32.3833C14.9157 32.3791 14.9049 32.3584 14.8739 32.3528C14.8123 32.3416 14.7172 32.4064 14.7288 32.5153C14.7368 32.5912 14.8018 32.6873 15.0235 32.6873C15.2452 32.6873 15.5043 32.5057 15.6343 32.3376C15.6343 32.3376 15.7682 32.3681 15.9058 32.3759C15.9058 32.3759 15.4796 32.9727 14.6391 32.9727C13.7142 32.9729 13.3726 32.1465 13.2275 31.8791ZM17.4708 26.9627C20.6577 26.9627 24.1888 25.0066 26.6646 22.1863C26.9324 21.8816 27.3871 21.3037 28.4647 21.3037C29.5422 21.3037 30.9748 22.2856 30.8062 24.0738C30.6834 25.3775 28.8199 28.3156 25.633 30.1269C22.4462 31.9381 19.5115 32.3278 17.471 32.3278C15.4304 32.3278 12.4958 31.9381 9.30875 30.1269C6.1219 28.3156 4.25856 25.3775 4.13545 24.0738C3.96677 22.2856 5.39941 21.3037 6.47707 21.3037C7.55472 21.3037 8.00957 21.8818 8.27722 22.1863C10.753 25.0066 14.284 26.9627 17.4708 26.9627Z" fill="#FFF22D"/>
<path id="Vector_9" d="M17.4708 26.8481C19.0149 26.8481 20.6427 26.3822 22.1903 25.5782C23.8029 24.7405 25.3267 23.5372 26.5786 22.1111C26.7166 21.9544 26.902 21.7271 27.1985 21.5352C27.4969 21.342 27.9 21.1891 28.4647 21.1891C28.5231 21.1891 28.5856 21.1924 28.6512 21.1983C29.1706 21.2476 29.7417 21.4987 30.1822 21.9359C30.6231 22.3735 30.9345 22.9967 30.9345 23.7885C30.9345 23.8819 30.9299 23.9805 30.92 24.0847C30.8493 24.8333 30.2274 26.098 29.1283 27.3843C28.2659 28.3933 27.1076 29.4203 25.6896 30.226C24.0852 31.1377 22.5444 31.692 21.148 32.018C18.7292 32.5832 16.2125 32.5832 13.7936 32.018C12.3975 31.692 10.8566 31.1377 9.25223 30.226C7.83429 29.4201 6.67602 28.3931 5.81353 27.3843C4.71444 26.098 4.09236 24.8333 4.02173 24.0847C4.01226 23.9863 4.00741 23.8874 4.0072 23.7885C4.0072 22.9967 4.31861 22.3735 4.75966 21.9359C5.19998 21.4987 5.77086 21.2476 6.29017 21.1983C6.35608 21.1924 6.41854 21.1891 6.47701 21.1891C7.04135 21.1891 7.44499 21.342 7.74296 21.5352C8.03966 21.7271 8.22523 21.9544 8.36305 22.1111C9.61502 23.5372 11.1392 24.7404 12.7514 25.5782C14.299 26.3822 15.9264 26.8481 17.4708 26.8481ZM17.4708 27.0773C15.8889 27.0773 14.2251 26.6021 12.6455 25.7817C11.0093 24.9316 9.46231 23.7096 8.19091 22.2618C8.06108 22.114 7.8855 21.8998 7.6184 21.7267C7.35275 21.5548 6.99014 21.4186 6.47683 21.4186C6.42166 21.4185 6.36653 21.421 6.31159 21.426C5.84095 21.4703 5.32236 21.6995 4.92071 22.0981C4.51961 22.4963 4.23635 23.0644 4.23635 23.7887C4.23635 23.8806 4.24053 23.9721 4.24906 24.0633C4.31588 24.7718 4.91908 25.9862 5.98711 27.236C6.83435 28.2272 7.97229 29.2362 9.36499 30.0277C10.9476 30.927 12.4678 31.4736 13.8456 31.7952C15.034 32.0729 16.2503 32.2132 17.4708 32.2133C18.6912 32.2132 19.9075 32.0729 21.0959 31.7952C22.4741 31.4736 23.9941 30.927 25.5765 30.0277C26.9692 29.2362 28.1073 28.2272 28.9546 27.2356C30.0228 25.9858 30.626 24.772 30.6926 24.0633C30.7012 23.9725 30.7053 23.8806 30.7053 23.7887C30.7053 23.0646 30.4219 22.4964 30.0208 22.0981C29.6193 21.6995 29.1006 21.4703 28.6299 21.426C28.575 21.421 28.5198 21.4186 28.4647 21.4186C27.9515 21.4186 27.5888 21.5548 27.3231 21.7267C27.056 21.8998 26.8802 22.114 26.7508 22.2618C25.4794 23.7096 23.9325 24.9316 22.2962 25.7813C20.7168 26.6021 19.0528 27.0773 17.4708 27.0773Z" fill="black"/>
<path id="Vector_10" fill-rule="evenodd" clip-rule="evenodd" d="M7.91915 22.4665L7.88192 22.4244C7.62826 22.1331 7.28072 21.7338 6.45074 21.7338C5.96665 21.7338 5.41847 21.9928 5.05423 22.3931C4.78186 22.692 4.473 23.2177 4.5489 24.0213C4.6524 25.1193 6.3959 27.967 9.50068 29.7317C12.0032 31.1539 14.6758 31.8753 17.4447 31.8753C20.2135 31.8753 22.886 31.1539 25.3886 29.7317C28.4932 27.967 30.2369 25.1193 30.3404 24.0213C30.416 23.2177 30.1075 22.6922 29.8347 22.3931C29.4708 21.9928 28.9223 21.7338 28.4386 21.7338C27.6088 21.7338 27.2612 22.1331 27.0072 22.4244L26.9704 22.4665C24.3021 25.5054 20.652 27.3928 17.4447 27.3928C14.2375 27.3928 10.5872 25.5055 7.91915 22.4665Z" fill="#C23227"/>
<path id="Vector_11" fill-rule="evenodd" clip-rule="evenodd" d="M27.7086 18.8822C27.7086 17.3531 28.9477 16.1135 30.4769 16.1135C32.0062 16.1135 33.2456 17.3531 33.2456 18.8822C33.2456 20.4111 32.0062 21.6505 30.4769 21.6505C28.9477 21.6505 27.7086 20.4111 27.7086 18.8822Z" fill="#FFF22D"/>
<path id="Vector_12" d="M27.5936 18.8822C27.5936 18.0859 27.9163 17.3651 28.4383 16.8432C28.9596 16.3214 29.6807 15.9987 30.4769 15.9987C31.2731 15.9987 31.994 16.3214 32.5158 16.8432C33.0377 17.3651 33.3601 18.0859 33.3601 18.8822C33.3601 19.6784 33.0375 20.399 32.5158 20.9207C31.9941 21.4424 31.2731 21.765 30.4769 21.765C29.6807 21.765 28.96 21.4424 28.4383 20.9207C28.1701 20.6534 27.9574 20.3356 27.8124 19.9858C27.6675 19.6359 27.5931 19.2609 27.5936 18.8822ZM27.823 18.8822C27.823 19.6148 28.1202 20.2783 28.6003 20.7586C29.0804 21.2388 29.744 21.5359 30.4767 21.5359C31.2094 21.5359 31.8729 21.2387 32.3535 20.7586C32.6003 20.5124 32.796 20.2199 32.9294 19.8979C33.0628 19.5759 33.1312 19.2307 33.1308 18.8822C33.1313 18.5336 33.0628 18.1883 32.9294 17.8663C32.796 17.5442 32.6003 17.2517 32.3535 17.0056C31.873 16.5253 31.2094 16.2282 30.4767 16.2282C29.744 16.2282 29.0806 16.5253 28.6003 17.0056C28.3534 17.2517 28.1577 17.5442 28.0243 17.8662C27.8909 18.1883 27.8224 18.5336 27.823 18.8822Z" fill="black"/>
<path id="Vector_13" fill-rule="evenodd" clip-rule="evenodd" d="M1.75439 18.8865C1.75439 17.3578 2.99402 16.1182 4.52308 16.1182C6.05195 16.1182 7.29158 17.3578 7.29158 18.8865C7.29158 20.4158 6.05195 21.6552 4.52308 21.6552C2.99402 21.6552 1.75439 20.4158 1.75439 18.8865Z" fill="#FFF22D"/>
<path id="Vector_14" d="M1.63977 18.8865C1.63977 18.0907 1.96243 17.3698 2.48428 16.848C2.75174 16.5799 3.06954 16.3673 3.41941 16.2224C3.76928 16.0775 4.14434 16.0031 4.52303 16.0036C5.31906 16.0036 6.03992 16.3265 6.56159 16.848C6.82968 17.1154 7.04229 17.4331 7.18719 17.783C7.33208 18.1328 7.40642 18.5079 7.40592 18.8865C7.40592 19.6827 7.08326 20.4036 6.56159 20.9255C6.29419 21.1936 5.97644 21.4063 5.6266 21.5512C5.27675 21.6962 4.90171 21.7706 4.52303 21.7701C3.72681 21.7701 3.00614 21.4471 2.48428 20.9255C1.96243 20.4038 1.63977 19.6826 1.63977 18.8865ZM1.86892 18.8865C1.86844 19.2351 1.93687 19.5804 2.07027 19.9025C2.20368 20.2246 2.39942 20.5171 2.64625 20.7633C2.89241 21.0101 3.18492 21.2058 3.50697 21.3392C3.82902 21.4726 4.17426 21.5411 4.52285 21.5406C5.25569 21.5406 5.91899 21.2434 6.39926 20.7633C6.64609 20.5171 6.84184 20.2246 6.97524 19.9025C7.10864 19.5804 7.17707 19.2351 7.17659 18.8865C7.17659 18.1539 6.87953 17.4904 6.39926 17.0101C5.91899 16.5298 5.25569 16.2328 4.52285 16.2328C4.17426 16.2323 3.82902 16.3008 3.50697 16.4342C3.18492 16.5676 2.89241 16.7633 2.64625 17.0101C2.39948 17.2563 2.20377 17.5488 2.07037 17.8708C1.93697 18.1928 1.86851 18.538 1.86892 18.8865Z" fill="black"/>
<path id="Vector_15" fill-rule="evenodd" clip-rule="evenodd" d="M31.2348 11.4357L31.2501 10.6943C31.4763 10.8652 31.9072 10.8719 32.1594 10.6025C32.2755 10.4793 32.3403 10.2914 32.3299 10.0949C32.3157 9.86518 32.2178 9.64858 32.0547 9.48612C31.1223 8.57751 30.2981 7.66926 30.2981 7.66926C30.2147 7.5349 30.0775 7.43558 30.0027 7.40216C29.8859 7.35023 29.4828 7.16575 29.1752 7.63349C28.8965 8.05748 28.9379 8.65741 28.988 8.8753L29.8628 10.0639C30.1612 10.4421 31.0021 11.2483 31.2348 11.4357ZM12.5936 3.72614C13.6929 3.35772 14.6961 3.05358 16.0487 2.93338L12.5936 3.72614Z" fill="black"/>
<path id="Vector_16" fill-rule="evenodd" clip-rule="evenodd" d="M12.5937 3.72923C13.6929 3.36027 14.6961 3.05667 16.0487 2.93629L16.2548 2.8199C15.4985 2.22542 14.7482 1.82104 14.0014 1.82104C13.5324 1.82104 12.5791 2.13917 12.3649 3.82057L12.5937 3.72923ZM22.351 3.72923C21.2516 3.36027 20.2487 3.05667 18.8962 2.93629L18.6901 2.8199C19.4462 2.22542 20.1963 1.82104 20.9431 1.82104C21.4123 1.82104 22.3659 2.13917 22.5798 3.82057L22.351 3.72923ZM16.5702 2.76724C16.7937 2.7558 17.3096 2.74436 17.516 2.74436C17.7221 2.74436 18.2921 2.7716 18.4168 2.78104L16.5702 2.76724Z" fill="black"/>
<path id="Vector_17" fill-rule="evenodd" clip-rule="evenodd" d="M16.2295 2.87909C16.7824 1.81923 17.289 1.4332 17.5692 1.4332C17.9196 1.4332 18.33 1.991 18.6515 2.70877L18.7196 2.87038L18.4398 2.84732C18.2493 2.81318 17.7221 2.80737 17.516 2.80737C17.3095 2.80737 16.8625 2.80737 16.593 2.83025L16.2295 2.87909Z" fill="black"/>
<path id="Vector_18" fill-rule="evenodd" clip-rule="evenodd" d="M15.1477 27.9752L14.6527 29.8218L13.7299 27.5955L13.1556 27.4415L12.4558 30.0528L13.0788 30.2198L13.5776 28.3583L14.5151 30.6046L15.0747 30.7545L15.7743 28.1429L15.1477 27.9752ZM17.2986 28.3051L16.5888 28.2679L16.4476 30.9674L17.1572 31.0046L17.2986 28.3051ZM17.936 28.282L17.9857 28.6377L18.7429 28.531L19.0692 30.8524L19.773 30.7535L19.4465 28.4324L20.1922 28.3274L20.1427 27.9721L17.936 28.282ZM25.2593 27.1815C25.603 27.784 25.5339 28.2223 25.0036 28.5284L24.7522 28.6735L23.758 26.9523L24.0297 26.7953C24.6643 26.429 25.0222 26.755 25.2593 27.1815ZM23.8766 26.4677L22.9605 26.9965L24.3167 29.3457L25.2261 28.8208C26.1723 28.2742 26.2598 27.4497 25.8888 26.7911C25.4409 26.0076 24.7055 25.9893 23.8766 26.4677ZM22.1605 29.7938L21.8907 28.9637L22.6918 28.7033L22.5794 28.3579L21.7785 28.6181L21.5481 27.9092L22.3711 27.6421L22.2602 27.3004L20.7578 27.7887L21.5931 30.3594L23.25 29.8214L23.1376 29.4761L22.1605 29.7938ZM11.8757 26.8152L11.0751 28.2593C10.8336 28.6947 10.5846 28.9704 10.1774 28.7352C9.77317 28.5115 9.86669 28.1774 10.114 27.7309L10.9162 26.2832L10.2698 25.925L9.42237 27.4535C8.95499 28.2969 9.54439 28.8164 10.0012 29.0695C10.4931 29.3422 11.2074 29.5451 11.6708 28.7089L12.5219 27.1733L11.8757 26.8152ZM11.4177 10.9362V23.5939L17.4706 27.4847L23.5233 23.5939L23.5311 10.9562C23.3391 10.7844 22.936 10.4083 22.6186 10.2141H12.2947C12.0309 10.3989 11.5072 10.8389 11.4177 10.9362Z" fill="#FFF22D"/>
<path id="Vector_19" d="M11.5323 10.9362V23.5316L17.4706 27.3489L23.4089 23.5316L23.4163 10.9562H23.6458L23.638 23.5939V23.656L23.5852 23.6901L17.5323 27.5811L17.4706 27.6209L17.4087 27.5811L11.356 23.6901L11.303 23.656V10.9362H11.5323Z" fill="black"/>
<path id="Vector_20" d="M23.4546 11.0419C23.4 10.9928 23.4412 11.0293 23.3833 10.977H23.3825C23.1761 10.7904 22.83 10.4777 22.5587 10.3117L22.6782 10.1165C22.9711 10.2961 23.3253 10.6161 23.5369 10.8069H23.5361L23.6079 10.8708L23.4546 11.0419Z" fill="black"/>
<path id="Vector_21" d="M22.6187 10.3286H12.2948V10.0995H22.6187V10.3286Z" fill="black"/>
<path id="Vector_22" d="M12.3605 10.3081C12.2368 10.3949 12.0623 10.5322 11.9027 10.6635C11.7159 10.8174 11.5472 10.9641 11.5018 11.0137L11.3335 10.8588C11.384 10.8035 11.5623 10.6478 11.7577 10.487C11.9274 10.3471 12.1085 10.2042 12.2287 10.12L12.3605 10.3081Z" fill="black"/>
<path id="Vector_23" fill-rule="evenodd" clip-rule="evenodd" d="M17.8984 16.3503C17.8563 16.3317 17.7056 16.4532 17.6368 16.5622C17.5679 16.6711 17.5478 16.8115 17.6453 16.863C17.7428 16.9146 17.8655 16.8478 17.895 16.6769C17.9118 16.5765 17.9445 16.3702 17.8984 16.3503ZM16.7398 16.6767C16.765 16.8485 16.8916 16.9146 16.9891 16.8629C17.0866 16.8113 17.0666 16.6709 16.9978 16.562C16.9288 16.453 16.787 16.3316 16.7447 16.3501C16.6987 16.3702 16.7254 16.5794 16.7398 16.6767ZM17.3473 18.3605C17.5507 18.0268 17.6353 17.6799 17.6353 17.6799H17.0535C17.0535 17.6799 17.1467 18.0353 17.3473 18.3605ZM17.4475 15.8533L17.9175 15.0355L18.2843 15.8533H18.8922C18.5252 16.1974 18.3761 16.7169 18.3761 17.061V17.4392C18.3761 17.5999 18.2961 17.8633 18.2961 17.8633C18.2961 17.8633 18.8223 18.2655 18.9036 18.3333C18.9379 18.362 18.9742 18.3787 18.9494 18.4482C18.9076 18.5666 18.5519 18.7251 18.5139 18.7574C18.4339 18.8262 18.4121 18.8713 18.4355 18.9412C18.4586 19.0096 18.5252 19.0213 18.6628 18.9753C18.8005 18.9296 19.087 18.7807 19.3281 18.6774C19.5685 18.5742 19.8896 18.5969 19.8896 18.5969V18.1388H18.9842V16.6713L18.8235 16.4151L19.225 15.7042L19.6257 16.4191L19.4654 16.6711V17.4392H19.9297V16.6711L19.7694 16.4191L20.1705 15.708L20.5716 16.4191L20.4112 16.6711V17.4392H20.8755V16.6711L20.7152 16.4191L21.1163 15.708L21.5174 16.4191L21.3567 16.6711L21.3616 18.1375L20.4512 18.1379V18.8117C20.6576 19.0064 20.8527 19.4454 20.8527 19.7089C20.8527 19.9727 20.6807 20.0873 20.6807 20.0873C20.7377 20.2937 20.7265 20.3794 20.7034 20.5688C20.68 20.762 20.4396 21.0615 20.4396 21.0615V24.5568C20.4396 24.7949 19.8896 24.7722 19.8896 24.5684V21.1419C19.58 20.7982 18.7317 20.5343 18.7317 20.5343C18.4221 20.8436 18.2274 21.3827 18.2274 21.3827C18.3651 21.4745 18.5715 21.3827 18.6516 21.2908C18.7317 21.1993 18.8924 21.1762 18.9842 21.2334C19.0757 21.2908 19.0988 21.3138 19.0643 21.4515C19.03 21.5888 18.9724 21.8172 18.9724 21.9773C18.9724 22.138 19.1562 22.1032 19.2935 22.115C19.5687 22.138 19.6145 22.4472 19.5918 22.6192C19.5687 22.7912 19.4887 23.1583 19.4887 23.3873C19.4887 23.6162 19.4999 23.8457 19.523 23.9721C19.5457 24.098 19.5918 24.2356 19.58 24.3963C19.5644 24.6136 19.4311 24.6485 19.2935 24.5109C19.1562 24.3732 17.2415 22.3327 17.2415 22.3327C17.1154 22.745 17.6426 23.4563 17.8147 23.674C17.9866 23.8921 17.975 24.0524 17.8263 24.2013C17.6771 24.3502 17.3905 24.4304 17.3333 24.5682C17.276 24.7059 17.471 25.1182 17.8721 25.6339C18.2732 26.15 17.4134 26.4939 16.8976 26.5972C16.3817 26.7003 16.3817 26.3446 16.4162 26.15C16.4503 25.9549 16.4503 25.8404 16.4391 25.6684C16.4276 25.4968 16.2671 25.2561 16.0492 24.969C15.8313 24.6828 15.8313 24.419 15.9232 23.7541C16.0149 23.0895 15.992 22.665 15.992 22.665C15.992 22.665 15.7627 22.6766 15.4302 22.665C15.0978 22.6537 14.8227 22.46 14.7998 21.6574C14.7769 20.8548 14.7579 18.9408 14.7043 18.7418C14.6509 18.5432 14.4368 18.5049 14.3451 18.4822C14.2534 18.4591 14.2467 18.3215 14.3384 18.2757C14.5772 18.1562 14.8648 17.863 14.7579 17.6796C14.6509 17.496 14.2306 17.5341 13.9478 17.6718C13.6651 17.8094 13.367 18.1072 13.2905 18.1916C13.2141 18.2757 13.1529 18.2757 13.1605 18.1838C13.1681 18.0919 13.1071 17.6565 13.069 17.5036C13.0309 17.3508 12.8931 17.0606 12.8473 16.9841C12.8015 16.9077 12.8473 16.8772 12.9237 16.9077C13.0002 16.9384 13.1683 17.0072 13.3288 17.053C13.4894 17.0987 13.6421 17.0225 13.7185 16.8696C13.795 16.7167 13.94 16.3882 14.0165 16.243C14.0929 16.0977 14.2153 16.1282 14.3146 16.1513C14.4141 16.1741 14.5058 16.2353 14.5973 16.2735C14.689 16.3118 14.7655 16.3041 14.796 16.2582C14.8267 16.2124 14.865 16.197 14.9184 16.0823C14.9718 15.9677 15.0406 16.0212 15.0482 16.067C15.3222 17.7112 16.0342 17.7867 16.0342 17.7867C15.9272 18.0616 15.675 18.4974 15.614 18.6045C15.5528 18.7113 15.5299 18.8564 15.5147 18.9713C15.4994 19.0859 15.5528 20.1706 15.6292 20.5687C15.7059 20.9659 15.9504 20.8134 16.0267 20.691C16.103 20.5687 16.3401 20.0644 16.3401 20.0644C16.3401 20.0644 16.4013 19.9268 16.4013 19.8118C16.4013 19.6973 16.2025 19.4451 16.1565 19.3686C16.1108 19.2923 15.9426 19.1395 15.9426 18.7572C15.9426 18.3752 16.2865 18.1076 16.4089 18.0082C16.5311 17.9089 16.5311 17.7716 16.5159 17.6876C16.4621 17.3918 16.1489 16.7702 15.9962 16.5333C15.8433 16.2965 15.5454 15.8455 15.5454 15.8455H16.1643L16.5618 15.02L16.9974 15.8493L17.4475 15.8533ZM19.8894 20.0185V19.5486C19.8894 19.5486 19.7632 19.3535 19.4536 19.3535C19.1444 19.3535 18.961 19.4454 18.961 19.5255C18.961 19.6519 19.2361 20.0185 19.8894 20.0185ZM11.8918 14.0934H23.0588V14.8552H11.8918V14.0934ZM11.8918 13.702V10.6682H23.0588V13.702H11.8918Z" fill="#C23227"/>
<path id="Vector_24" fill-rule="evenodd" clip-rule="evenodd" d="M20.8608 13.7922V13.2743H20.0497V12.9404H20.7117V11.4731H20.104L19.8975 11.072L19.6911 11.4731H19.0837V12.9404H19.7453V13.2743H18.1565V12.9404H18.8184V11.4731H18.2108L18.0044 11.072L17.7981 11.4731H17.1906V12.9404H17.8522V13.2743H16.2324V12.9404H16.8942V11.4731H16.2865L16.0802 11.072L15.8739 11.4731H15.2662V12.9404H15.9279V13.2743L14.6472 13.2778L13.3711 12.9796L13.6284 13.7922H20.8608Z" fill="#FFF22D"/>
<path id="Vector_25" fill-rule="evenodd" clip-rule="evenodd" d="M13.8118 12.9137L14.6675 13.124L15.1266 11.8355L15.1267 11.5107L13.8118 12.9137ZM15.8768 2.85147C14.5511 2.96931 13.7353 3.25112 12.6578 3.61227C12.7379 3.14871 12.8458 2.87398 13.033 2.60107C13.0179 2.84075 13.2136 3.09605 13.6031 3.09605C13.9926 3.09605 14.2094 2.87144 14.2094 2.73653C14.2094 2.60198 14.1275 2.40697 13.9178 2.40697C13.7081 2.40697 13.6632 2.55677 13.6781 2.61669C13.6932 2.67679 13.6482 2.69168 13.5884 2.70675C13.5283 2.72164 13.3636 2.63158 13.4235 2.42204C13.4893 2.19162 13.768 2.06633 14.0974 2.06633C14.0972 2.06597 14.8812 2.03473 15.8768 2.85147ZM22.2963 3.62153C21.2188 3.26001 20.3663 2.97839 19.0406 2.86036C19.6509 2.43511 20.2209 2.07396 20.8471 2.07396C21.1765 2.07396 21.4554 2.19924 21.521 2.42966C21.5809 2.63939 21.416 2.72908 21.3561 2.71401C21.2965 2.69894 21.2515 2.68405 21.2664 2.62413C21.2813 2.56439 21.2362 2.41441 21.0267 2.41441C20.8172 2.41441 20.7353 2.60906 20.7353 2.74397C20.7353 2.87889 20.9519 3.1035 21.3414 3.1035C21.7309 3.1035 21.9266 2.84802 21.9117 2.60852C22.0987 2.88161 22.2162 3.15797 22.2963 3.62153ZM16.6937 2.60507C16.6582 2.6619 16.6269 2.70421 16.5888 2.76758C16.8976 2.7545 17.2065 2.74693 17.5156 2.74488C17.718 2.74488 18.2762 2.77194 18.3986 2.78083C18.201 2.32344 17.8282 1.69192 17.5679 1.69192C17.5165 1.69192 17.4028 1.66523 17.1889 1.91144C17.1889 1.91144 17.1557 2.02021 17.2915 1.99933C17.4636 1.973 17.5288 2.15076 17.5161 2.23919C17.486 2.44492 17.2465 2.64356 17.0066 2.64356C16.7671 2.64356 16.6937 2.60507 16.6937 2.60507Z" fill="#FFF22D"/>
<path id="Vector_26" fill-rule="evenodd" clip-rule="evenodd" d="M5.14675 10.0639L6.02158 8.87529C6.07188 8.6574 6.11328 8.05747 5.83438 7.63349C5.52679 7.16575 5.12332 7.35023 5.00657 7.40216C4.93176 7.43557 4.79485 7.53489 4.71114 7.66926C4.71114 7.66926 3.8719 8.59675 2.94331 9.50954C2.81421 9.63628 2.66859 9.87632 2.65678 10.0948C2.64589 10.2912 2.72306 10.4871 2.83854 10.6103C3.09112 10.8794 3.53344 10.8652 3.75932 10.6943L3.77457 11.4357C4.00808 11.2483 4.8486 10.4421 5.14675 10.0639Z" fill="black"/>
<path id="Vector_27" fill-rule="evenodd" clip-rule="evenodd" d="M17.4708 8.33183C22.4538 8.33183 25.2913 13.0111 25.9081 13.8331C27.0089 15.3004 28.3531 16.4903 29.9128 16.0951C32.2052 15.5145 32.0832 12.1175 32.0832 12.1175C31.5332 11.7199 30.5894 11.2193 28.8733 8.78523C27.1919 6.40094 23.3859 2.86328 17.4708 2.86328C11.5554 2.86328 7.74938 6.40094 6.06817 8.78523C4.35208 11.2191 3.40861 11.7199 2.85843 12.1175C2.85843 12.1175 2.73623 15.5145 5.029 16.0951C6.58856 16.4903 7.93314 15.3004 9.03368 13.8331C9.65013 13.0111 12.488 8.33183 17.4708 8.33183Z" fill="#FFF22D"/>
<path id="Vector_28" d="M17.4708 8.21726C22.1042 8.21726 24.8963 12.1967 25.8048 13.4915C25.887 13.6088 25.954 13.7042 25.9994 13.7644C26.542 14.4882 27.1439 15.143 27.7999 15.5662C28.4429 15.9813 29.1398 16.1729 29.8848 15.9842C31.9205 15.4685 31.9729 12.6129 31.9691 12.1767C31.9255 12.1457 31.8772 12.1124 31.8266 12.0776C31.2499 11.6796 30.3229 11.0401 28.7795 8.85097C27.8146 7.48224 26.143 5.73021 23.7687 4.49712C22.0416 3.60013 19.9422 2.97787 17.4706 2.97787C14.999 2.97787 12.8992 3.60013 11.1722 4.49712C8.79792 5.73021 7.12669 7.48206 6.16161 8.85097C4.61785 11.0404 3.69108 11.6798 3.11403 12.0778C3.06355 12.1126 3.01561 12.1457 2.97185 12.1765C2.96804 12.6125 3.02051 15.4682 5.05635 15.984C5.80154 16.1729 6.49807 15.9811 7.14122 15.566C7.79707 15.1428 8.399 14.488 8.94191 13.7643C8.98713 13.704 9.05413 13.6086 9.13638 13.4915C10.0452 12.1969 12.8375 8.21726 17.4708 8.21726ZM17.4708 8.4466C12.9562 8.4466 10.2153 12.3525 9.32377 13.6233C9.25877 13.717 9.19249 13.8097 9.12494 13.9015C8.56732 14.6451 7.94651 15.3191 7.26523 15.7589C6.57107 16.2068 5.81553 16.4127 5.00115 16.2063C2.61778 15.6025 2.74343 12.1244 2.74379 12.1143L2.74543 12.0582L2.79173 12.0246C2.85437 11.9794 2.91683 11.9361 2.98456 11.8897C3.54836 11.5005 4.45424 10.8759 5.97477 8.71932C6.95583 7.32808 8.65466 5.54718 11.0678 4.29394C12.8246 3.38151 14.9596 2.74872 17.4709 2.74872C19.9821 2.74872 22.1171 3.38151 23.8741 4.29394C26.287 5.54718 27.986 7.3279 28.9671 8.71932C30.4874 10.8754 31.3932 11.5005 31.9568 11.8893C32.0245 11.936 32.0873 11.9794 32.15 12.0246L32.1964 12.0582L32.1979 12.1143C32.1983 12.1243 32.3237 15.6025 29.9405 16.2063C29.1263 16.4125 28.3708 16.2066 27.6768 15.7589C26.9952 15.3191 26.3746 14.6451 25.8168 13.9015C25.7606 13.8269 25.6969 13.7354 25.6177 13.6233C24.726 12.3525 21.9853 8.4466 17.4708 8.4466Z" fill="black"/>
<path id="Vector_29" fill-rule="evenodd" clip-rule="evenodd" d="M17.4708 7.89041C22.2744 7.89041 25.1332 11.9652 26.0734 13.3041C26.1347 13.393 26.1972 13.481 26.2609 13.5681C27.532 15.2626 28.6913 15.9493 29.8042 15.6673C31.4139 15.2595 31.6118 13.0443 31.6341 12.375L31.6349 12.3498L31.6144 12.3356C31.0484 11.945 30.1 11.2915 28.5127 9.03961C27.5639 7.69431 23.964 3.30487 17.4708 3.30487C10.9776 3.30487 7.37786 7.69431 6.42913 9.03961C4.85231 11.2755 3.8629 11.9586 3.33125 12.3258L3.31055 12.3399L3.31127 12.3652C3.33433 13.037 3.53425 15.261 5.13721 15.6673C6.25045 15.9495 7.40946 15.2626 8.68013 13.5681C8.72662 13.5064 8.79216 13.4129 8.86825 13.3043C9.8079 11.9652 12.6668 7.89041 17.4708 7.89041Z" fill="#C23227"/>
<path id="Vector_30" fill-rule="evenodd" clip-rule="evenodd" d="M7.13547 9.76739L6.63396 10.365L7.57434 12.3087L5.55648 11.6492L5.12451 12.1638L7.19557 13.9015L7.50843 13.5287L6.04638 12.2971L8.0074 12.9343L8.21349 12.6888L7.2791 10.8158L8.74969 12.0494L9.20636 11.5051L7.13547 9.76739ZM9.75363 9.36047L9.28462 9.86326L8.80416 8.93468L9.75363 9.36047ZM8.66108 8.13338L8.20006 8.62763L9.49506 11.2031L9.81119 10.8643L9.45947 10.1825L10.0863 9.51027L10.7935 9.8106L11.3152 9.25135L8.66108 8.13338ZM11.8232 5.68645L12.8364 7.30775L10.5787 6.46414L10.0741 6.77936L11.5069 9.07195L12.0538 8.7304L11.0327 7.09585L13.3149 7.94236L13.8061 7.63513L12.3736 5.34273L11.8232 5.68645ZM20.3791 7.01396L20.6633 6.18869L21.4595 6.46305L21.5779 6.11951L20.7817 5.84551L21.0239 5.14063L21.8421 5.42244L21.9592 5.08271L20.4654 4.56866L19.5855 7.12454L21.2325 7.6916L21.3506 7.34842L20.3791 7.01396ZM25.0033 6.84309L24.7597 7.10729L25.3282 7.61897L23.7597 9.36138L24.2878 9.83675L25.8562 8.0947L26.4162 8.5984L26.6564 8.33166L25.0033 6.84309ZM25.7794 10.9022L26.4478 10.3417L26.9891 10.9865L27.2671 10.753L26.7261 10.108L27.2968 9.62902L27.8532 10.292L28.1281 10.061L27.1131 8.85079L25.042 10.5887L26.1616 11.9229L26.4396 11.6896L25.7794 10.9022ZM28.912 11.5908C29.1003 11.8001 29.101 12.0493 28.8856 12.243C28.6703 12.4367 28.3994 12.3952 28.1927 12.1655L28.0711 12.0306L28.7542 11.4157L28.912 11.5908ZM28.5519 12.9228C28.5572 12.9286 28.9704 13.1335 29.4267 12.7224C29.8084 12.3786 29.68 11.9071 29.282 11.4649L28.5454 10.6473L26.5364 12.4562L27.0119 12.9842L27.8096 12.2657L28.0451 12.5268L27.5365 13.6651L28.1404 14.1508L28.5519 12.9228ZM18.3843 4.34206L18.3649 5.44622L17.3029 5.42788L17.3223 4.32335L16.6118 4.31119L16.5648 7.01396L17.2751 7.02649L17.2967 5.79067L18.3584 5.80938L18.3368 7.04483L19.0478 7.05735L19.0947 4.35422L18.3843 4.34206ZM22.2325 8.35962C22.7364 8.66231 23.2873 8.61383 23.5437 8.18712C23.7323 7.88898 23.7338 7.64258 23.5093 7.20171C23.4491 7.07388 23.375 6.98382 23.3241 6.87069C23.2259 6.68367 23.134 6.53242 23.221 6.38806C23.314 6.23336 23.5309 6.22228 23.7292 6.3414C23.9373 6.4665 24.0232 6.67368 24.0651 6.81767L24.3925 6.67604C24.2921 6.40967 24.1436 6.16944 23.8077 5.96771C23.2295 5.62036 22.7583 5.71205 22.5626 6.03816C22.3647 6.36736 22.4208 6.63918 22.5679 6.91954C22.5679 6.91954 22.6625 7.08169 22.7175 7.18791C22.8466 7.40725 22.9977 7.68089 22.8927 7.85557C22.7636 8.07055 22.5384 8.11831 22.3216 7.98358C22.0436 7.80708 21.9786 7.60354 21.9202 7.40398L21.5616 7.55887C21.6407 7.83014 21.8261 8.1154 22.2325 8.35962ZM14.8628 4.48369C13.9776 4.67216 13.3979 5.32166 13.5891 6.20213C13.698 6.67731 14.124 7.55596 15.4671 7.27034C15.8386 7.19935 16.042 7.04864 16.2379 6.86325L15.9906 6.58108C15.9007 6.68385 15.7609 6.83329 15.452 6.89884C14.8035 7.03684 14.416 6.50899 14.3196 6.05487C14.1768 5.38358 14.5681 4.91747 15.0146 4.82269C15.3277 4.75605 15.5207 4.83885 15.6427 4.88842L15.6465 4.88769L15.7288 4.54306C15.5151 4.45681 15.2598 4.39962 14.8628 4.48369ZM29.1941 8.97934C29.1569 8.81901 29.1044 8.13429 29.3645 7.77295C29.6045 7.43994 29.8233 7.5527 29.9408 7.60481C29.9936 7.62823 30.1521 7.731 30.1834 7.93364C30.2001 8.04241 30.1659 8.20328 30.0819 8.32131C29.9174 8.53503 29.5431 8.67684 29.5431 8.67684C29.5431 8.67684 30.0227 9.61631 31.039 10.5493L31.0353 11.1833C29.6439 9.84147 29.1941 8.97934 29.1941 8.97934Z" fill="#FFF22D"/>
<path id="Vector_31" fill-rule="evenodd" clip-rule="evenodd" d="M29.892 8.78541C30.0297 9.02255 30.379 9.60268 31.2535 10.4221C31.3986 10.5581 31.7603 10.6714 31.9646 10.4421C32.043 10.3539 32.0929 10.228 32.0851 10.0817C32.0759 9.91354 31.9724 9.71726 31.8727 9.63174C31.6982 9.48212 30.9463 8.72276 30.4074 8.12628C30.3957 8.23505 30.3006 8.41681 30.3006 8.41681C30.2283 8.51885 30.1379 8.66539 29.892 8.78541ZM3.9736 11.1452L3.96997 10.5463C4.98662 9.61322 5.46671 8.67682 5.46671 8.67682C5.46671 8.67682 5.09248 8.53501 4.92797 8.3213C4.84372 8.20327 4.8094 8.04221 4.82629 7.93363C4.85788 7.73099 5.01603 7.6284 5.06869 7.6048C5.18617 7.55268 5.40497 7.43974 5.64465 7.77294C5.90485 8.13427 5.83676 8.81428 5.79972 8.97461C5.80008 8.97461 5.32617 9.80006 3.9736 11.1452Z" fill="#FFF22D"/>
<path id="Vector_32" fill-rule="evenodd" clip-rule="evenodd" d="M5.10032 8.7854C4.96305 9.02254 4.61351 9.60268 3.73904 10.4221C3.59396 10.5581 3.23226 10.6714 3.02835 10.4421C2.94972 10.3539 2.89961 10.228 2.90741 10.0817C2.91649 9.91354 3.02017 9.71726 3.11986 9.63173C3.29436 9.48211 4.04626 8.72276 4.58482 8.12628C4.59662 8.23505 4.69177 8.4168 4.69177 8.4168C4.76422 8.51885 4.85483 8.66538 5.10032 8.7854Z" fill="#FFF22D"/>
<path id="Vector_33" fill-rule="evenodd" clip-rule="evenodd" d="M2.27551 18.9096C2.27551 17.6658 3.28381 16.6575 4.52743 16.6575C5.77141 16.6575 6.77952 17.6658 6.77952 18.9096C6.77952 20.1537 5.77123 21.1615 4.52743 21.1615C3.28381 21.1615 2.27551 20.1535 2.27551 18.9096Z" fill="#C23227"/>
<path id="Vector_34" fill-rule="evenodd" clip-rule="evenodd" d="M5.7389 17.2787C5.77758 17.3095 5.87527 17.3898 5.87527 17.3898C6.07046 17.5645 6.24623 17.7688 6.34809 18.0132C6.47701 18.3206 6.0799 18.7827 5.96369 18.8913C5.43839 19.3813 5.11192 19.3732 4.92435 19.4002C4.7366 19.4267 4.61839 19.3109 4.62239 19.1703C4.63437 18.7569 4.92743 18.0522 5.01005 17.922C5.06416 17.8368 5.15731 17.7826 5.15731 17.7826C5.35105 17.7283 5.53899 17.6449 5.63649 17.5345C5.73436 17.4243 5.7389 17.2787 5.7389 17.2787ZM3.8545 16.9814C4.06804 16.9095 4.29175 16.8724 4.51707 16.8714C4.86897 16.8714 5.20416 16.9371 5.48923 17.1176C5.5615 17.1632 5.58329 17.2211 5.58329 17.3028C5.58329 17.5677 5.16548 17.658 4.88731 17.658C4.60949 17.658 4.26831 17.5474 4.02681 17.4722C3.78514 17.3965 3.73139 17.2554 3.73139 17.1932C3.73103 17.1312 3.77751 17.0072 3.8545 16.9814ZM2.96368 20.2264C2.68006 19.9462 2.47778 19.4427 2.47778 18.911C2.47778 18.705 2.50811 18.5063 2.56476 18.3187C2.56476 18.3187 2.61251 18.2332 2.659 18.3064C2.69204 18.3581 2.73689 18.4114 2.7772 18.4823C2.81788 18.5533 3.03813 18.7206 3.01761 18.8526C2.94008 19.3505 3.00998 20.015 3.03323 20.124C3.05665 20.2324 3.02251 20.2845 2.96368 20.2264ZM3.01779 18.5187C2.91738 18.4633 2.79772 18.2076 2.75868 18.1314C2.7309 18.0767 2.73254 17.9242 2.77048 17.8572C2.93626 17.5639 3.1725 17.2968 3.47863 17.155C3.51368 17.1389 3.56797 17.1372 3.56797 17.224C3.56797 17.2723 3.59194 17.3486 3.59285 17.3956C3.59394 17.4417 3.61482 17.5418 3.55254 17.6195C3.49062 17.6968 3.21626 18.1773 3.14944 18.4489C3.13436 18.5109 3.1182 18.5744 3.01779 18.5187ZM4.56065 20.9498C4.54612 20.9491 4.5316 20.9502 4.51707 20.9502C4.14175 20.9502 3.73103 20.808 3.48753 20.6718C3.23605 20.5311 3.14181 19.8874 3.14181 19.5582C3.14181 18.496 3.57959 17.8574 3.64932 17.7332C3.71904 17.6093 3.87411 17.5937 3.9905 17.6246C4.10689 17.6558 4.15174 17.6792 4.2852 17.7195C4.35747 17.7415 4.50218 17.7717 4.61076 17.7951C4.71935 17.8185 4.83538 17.8416 4.76583 18.0433C4.69611 18.2447 4.46224 18.7327 4.43663 19.3098C4.41339 19.8307 4.48312 20.3502 4.60132 20.6687C4.67813 20.8753 4.67686 20.9536 4.56065 20.9498ZM5.09539 20.8672C4.97882 20.9048 4.92507 20.8218 4.87078 20.7593C4.66143 20.5204 4.60732 19.877 4.60732 19.7919C4.60732 19.706 4.63818 19.6132 4.69774 19.6118C5.2067 19.599 5.56858 19.4503 5.90032 19.1776C6.23206 18.9049 6.37569 18.5967 6.40601 18.5365C6.43616 18.4762 6.50152 18.4869 6.51732 18.574C6.53021 18.645 6.55654 18.7738 6.55654 18.9109C6.55636 19.8362 5.93301 20.5955 5.09539 20.8672Z" fill="#FFF22D"/>
<path id="Vector_35" fill-rule="evenodd" clip-rule="evenodd" d="M32.7541 18.9096C32.7541 17.6658 31.7458 16.6575 30.5022 16.6575C29.258 16.6575 28.2502 17.6658 28.2502 18.9096C28.2502 20.1537 29.2582 21.1615 30.5022 21.1615C31.7458 21.1615 32.7541 20.1535 32.7541 18.9096Z" fill="#C23227"/>
<path id="Vector_36" fill-rule="evenodd" clip-rule="evenodd" d="M29.3928 17.5343C29.4903 17.6447 29.6782 17.7281 29.872 17.7824C29.872 17.7824 29.9653 17.8367 30.0192 17.9218C30.1018 18.052 30.3947 18.7567 30.4072 19.1702C30.4111 19.3105 30.293 19.4265 30.1051 19.4C29.9175 19.3732 29.5909 19.3812 29.0659 18.8911C28.9495 18.7825 28.5524 18.3204 28.6815 18.013C28.783 17.7686 28.9592 17.5643 29.1545 17.3896C29.1545 17.3896 29.2517 17.3094 29.2907 17.2785C29.2905 17.2787 29.2953 17.4243 29.3928 17.5343ZM31.2986 17.1932C31.2986 17.2554 31.2447 17.3965 31.0032 17.4722C30.7613 17.5474 30.4205 17.658 30.1425 17.658C29.8641 17.658 29.4463 17.5679 29.4463 17.3028C29.4463 17.2211 29.4683 17.1632 29.5404 17.1176C29.8255 16.9371 30.1607 16.8714 30.5126 16.8714C30.7448 16.8714 30.9669 16.9124 31.1753 16.9814C31.2518 17.0072 31.2986 17.1312 31.2986 17.1932ZM31.9962 20.1238C32.0193 20.0149 32.0892 19.3503 32.0118 18.8524C31.9913 18.7204 32.2116 18.5532 32.2522 18.4822C32.2927 18.4112 32.3374 18.358 32.3703 18.3062C32.4168 18.2332 32.4647 18.3186 32.4647 18.3186C32.5227 18.5107 32.552 18.7102 32.5518 18.9109C32.5518 19.4425 32.3494 19.946 32.0656 20.2262C32.0071 20.2845 31.9728 20.2324 31.9962 20.1238ZM31.8798 18.4491C31.8132 18.1775 31.5386 17.6968 31.4765 17.6197C31.4145 17.542 31.4353 17.4419 31.4361 17.3958C31.4375 17.3488 31.4613 17.2725 31.4613 17.2242C31.4613 17.1374 31.5156 17.139 31.5503 17.1552C31.8568 17.2968 32.0932 17.5639 32.2588 17.8574C32.2967 17.9244 32.2986 18.0769 32.2704 18.1315C32.2317 18.2078 32.1119 18.4635 32.0115 18.5188C31.9114 18.5744 31.8951 18.5109 31.8798 18.4491ZM30.4283 20.6689C30.5463 20.3504 30.6162 19.8309 30.5928 19.31C30.5672 18.7329 30.3335 18.245 30.2638 18.0435C30.1939 17.8417 30.3103 17.8187 30.4189 17.7953C30.5274 17.7718 30.6722 17.7417 30.7448 17.7197C30.8777 17.6792 30.9226 17.6558 31.0391 17.6248C31.1552 17.5939 31.3104 17.6095 31.3803 17.7333C31.4502 17.8575 31.8878 18.4961 31.8878 19.5584C31.8878 19.8874 31.7938 20.5311 31.5421 20.672C31.2988 20.8082 30.8881 20.9503 30.5126 20.9503C30.498 20.9503 30.4835 20.9492 30.4693 20.95C30.3528 20.9536 30.3513 20.8753 30.4283 20.6689ZM28.4733 18.9109C28.4733 18.7736 28.4996 18.6449 28.5127 18.574C28.5283 18.4869 28.5935 18.4762 28.6236 18.5365C28.6541 18.5967 28.7977 18.9049 29.1293 19.1776C29.4612 19.4503 29.8229 19.5989 30.3319 19.6118C30.3911 19.6132 30.4223 19.7062 30.4223 19.7919C30.4223 19.877 30.3684 20.5204 30.1588 20.7593C30.1046 20.8218 30.051 20.9048 29.9341 20.8672C29.0963 20.5955 28.4733 19.8362 28.4733 18.9109Z" fill="#FFF22D"/>
<path id="Vector_37" d="M28.2596 18.8978C28.2593 18.6005 28.3177 18.306 28.4315 18.0313C28.5453 17.7566 28.7123 17.5071 28.9228 17.2972C29.3324 16.8875 29.8984 16.6342 30.5232 16.6342C31.148 16.6342 31.7141 16.8875 32.1236 17.2972C32.5332 17.7066 32.7864 18.2726 32.7864 18.8978C32.7864 19.5229 32.5331 20.0887 32.1236 20.4982C31.7141 20.9076 31.1484 21.1609 30.5232 21.1609C30.2259 21.1613 29.9314 21.1029 29.6567 20.9892C29.382 20.8755 29.1325 20.7086 28.9224 20.4982C28.712 20.2882 28.5451 20.0387 28.4314 19.7641C28.3177 19.4894 28.2593 19.195 28.2596 18.8978ZM28.2827 18.8978C28.2827 19.5166 28.5335 20.0766 28.9387 20.482C29.3444 20.8877 29.9044 21.1384 30.5234 21.1384C31.1424 21.1384 31.7022 20.8877 32.108 20.4824C32.5133 20.0768 32.764 19.5168 32.764 18.8978C32.764 18.2788 32.5133 17.719 32.1076 17.3133C31.8998 17.105 31.6529 16.9397 31.381 16.8271C31.1091 16.7145 30.8176 16.6567 30.5234 16.6571C30.2291 16.6568 29.9376 16.7146 29.6657 16.8273C29.3939 16.9399 29.1469 17.1052 28.9391 17.3135C28.7307 17.5213 28.5654 17.7683 28.4528 18.0401C28.3401 18.312 28.2823 18.6035 28.2827 18.8978Z" fill="#FDE62F"/>
</g>
<defs>
<clipPath id="clip0_1_852">
<rect width="35" height="35" fill="white"/>
</clipPath>
</defs>
</svg>
