<svg width="19" height="19" viewBox="0 0 19 19" fill="none" xmlns="http://www.w3.org/2000/svg">
<path id="Vector" d="M5.9375 2.90216C5.62256 2.90216 5.32051 3.02854 5.09781 3.25351C4.87511 3.47848 4.75 3.78361 4.75 4.10176C4.75 4.41992 4.87511 4.72504 5.09781 4.95001C5.32051 5.17498 5.62256 5.30137 5.9375 5.30137C6.25244 5.30137 6.55449 5.17498 6.77719 4.95001C6.99989 4.72504 7.125 4.41992 7.125 4.10176C7.125 3.78361 6.99989 3.47848 6.77719 3.25351C6.55449 3.02854 6.25244 2.90216 5.9375 2.90216ZM2.57688 2.90216C2.82221 2.19975 3.27719 1.5915 3.87909 1.16127C4.48098 0.731039 5.20017 0.5 5.9375 0.5C6.67483 0.5 7.39402 0.731039 7.99591 1.16127C8.59781 1.5915 9.05278 2.19975 9.29813 2.90216H17.8125C18.1274 2.90216 18.4295 3.02854 18.6522 3.25351C18.8749 3.47848 19 3.78361 19 4.10176C19 4.41992 18.8749 4.72504 18.6522 4.95001C18.4295 5.17498 18.1274 5.30137 17.8125 5.30137H9.29813C9.05278 6.00378 8.59781 6.61202 7.99591 7.04226C7.39402 7.47249 6.67483 7.70353 5.9375 7.70353C5.20017 7.70353 4.48098 7.47249 3.87909 7.04226C3.27719 6.61202 2.82221 6.00378 2.57688 5.30137H1.1875C0.872555 5.30137 0.57051 5.17498 0.347811 4.95001C0.125111 4.72504 0 4.41992 0 4.10176C0 3.78361 0.125111 3.47848 0.347811 3.25351C0.57051 3.02854 0.872555 2.90216 1.1875 2.90216H2.57688ZM13.0625 13.6986C12.7476 13.6986 12.4455 13.825 12.2228 14.05C12.0001 14.275 11.875 14.5801 11.875 14.8982C11.875 15.2164 12.0001 15.5215 12.2228 15.7465C12.4455 15.9715 12.7476 16.0978 13.0625 16.0978C13.3774 16.0978 13.6795 15.9715 13.9022 15.7465C14.1249 15.5215 14.25 15.2164 14.25 14.8982C14.25 14.5801 14.1249 14.275 13.9022 14.05C13.6795 13.825 13.3774 13.6986 13.0625 13.6986ZM9.70187 13.6986C9.94722 12.9962 10.4022 12.388 11.0041 11.9577C11.606 11.5275 12.3252 11.2965 13.0625 11.2965C13.7998 11.2965 14.519 11.5275 15.1209 11.9577C15.7228 12.388 16.1778 12.9962 16.4231 13.6986H17.8125C18.1274 13.6986 18.4295 13.825 18.6522 14.05C18.8749 14.275 19 14.5801 19 14.8982C19 15.2164 18.8749 15.5215 18.6522 15.7465C18.4295 15.9715 18.1274 16.0978 17.8125 16.0978H16.4231C16.1778 16.8003 15.7228 17.4085 15.1209 17.8387C14.519 18.269 13.7998 18.5 13.0625 18.5C12.3252 18.5 11.606 18.269 11.0041 17.8387C10.4022 17.4085 9.94722 16.8003 9.70187 16.0978H1.1875C0.872555 16.0978 0.57051 15.9715 0.347811 15.7465C0.125111 15.5215 0 15.2164 0 14.8982C0 14.5801 0.125111 14.275 0.347811 14.05C0.57051 13.825 0.872555 13.6986 1.1875 13.6986H9.70187Z" fill="black"/>
</svg>
