<svg width="18" height="19" viewBox="0 0 18 19" fill="none" xmlns="http://www.w3.org/2000/svg">
<g id="Vector">
<path d="M9 17.375C6.91142 17.375 4.90838 16.5453 3.43153 15.0685C1.95468 13.5916 1.125 11.5886 1.125 9.5C1.125 7.41142 1.95468 5.40838 3.43153 3.93153C4.90838 2.45468 6.91142 1.625 9 1.625C11.0886 1.625 13.0916 2.45468 14.5685 3.93153C16.0453 5.40838 16.875 7.41142 16.875 9.5C16.875 11.5886 16.0453 13.5916 14.5685 15.0685C13.0916 16.5453 11.0886 17.375 9 17.375ZM9 18.5C11.3869 18.5 13.6761 17.5518 15.364 15.864C17.0518 14.1761 18 11.8869 18 9.5C18 7.11305 17.0518 4.82387 15.364 3.13604C13.6761 1.44821 11.3869 0.5 9 0.5C6.61305 0.5 4.32387 1.44821 2.63604 3.13604C0.948212 4.82387 0 7.11305 0 9.5C0 11.8869 0.948212 14.1761 2.63604 15.864C4.32387 17.5518 6.61305 18.5 9 18.5Z" fill="black"/>
<path d="M7.875 13.4375C7.875 13.2883 7.93426 13.1452 8.03975 13.0398C8.14524 12.9343 8.28832 12.875 8.4375 12.875H9.5625C9.71168 12.875 9.85476 12.9343 9.96025 13.0398C10.0657 13.1452 10.125 13.2883 10.125 13.4375C10.125 13.5867 10.0657 13.7298 9.96025 13.8352C9.85476 13.9407 9.71168 14 9.5625 14H8.4375C8.28832 14 8.14524 13.9407 8.03975 13.8352C7.93426 13.7298 7.875 13.5867 7.875 13.4375ZM5.625 10.0625C5.625 9.91332 5.68426 9.77024 5.78975 9.66475C5.89524 9.55926 6.03832 9.5 6.1875 9.5H11.8125C11.9617 9.5 12.1048 9.55926 12.2102 9.66475C12.3157 9.77024 12.375 9.91332 12.375 10.0625C12.375 10.2117 12.3157 10.3548 12.2102 10.4602C12.1048 10.5657 11.9617 10.625 11.8125 10.625H6.1875C6.03832 10.625 5.89524 10.5657 5.78975 10.4602C5.68426 10.3548 5.625 10.2117 5.625 10.0625ZM3.375 6.6875C3.375 6.53832 3.43426 6.39524 3.53975 6.28975C3.64524 6.18426 3.78832 6.125 3.9375 6.125H14.0625C14.2117 6.125 14.3548 6.18426 14.4602 6.28975C14.5657 6.39524 14.625 6.53832 14.625 6.6875C14.625 6.83668 14.5657 6.97976 14.4602 7.08525C14.3548 7.19074 14.2117 7.25 14.0625 7.25H3.9375C3.78832 7.25 3.64524 7.19074 3.53975 7.08525C3.43426 6.97976 3.375 6.83668 3.375 6.6875Z" fill="black"/>
</g>
</svg>
