<svg width="33" height="10" viewBox="0 0 33 10" fill="none" xmlns="http://www.w3.org/2000/svg">
<path id="Vector" d="M17.0668 3.19688C17.048 4.58993 18.3898 5.36725 19.4005 5.82946C20.439 6.30365 20.7878 6.60776 20.7837 7.03186C20.7759 7.68084 19.9553 7.96729 19.1874 7.97842C17.8477 7.9979 17.0687 7.63899 16.4495 7.36754L15.9668 9.48674C16.5882 9.75541 17.7387 9.98972 18.9317 10C21.7322 10 23.5643 8.70276 23.5742 6.69146C23.5852 4.13884 19.8117 3.99756 19.8375 2.85661C19.8464 2.51064 20.1982 2.14146 20.9691 2.04759C21.3506 2.00017 22.4039 1.96388 23.5981 2.47992L24.0668 0.429549C23.4246 0.210117 22.5992 0 21.5716 0C18.9357 0 17.0818 1.3149 17.0668 3.19688ZM28.5705 0.17661C28.0592 0.17661 27.6282 0.456525 27.4359 0.886074L23.4355 9.8494H26.234L26.7908 8.40519H30.2105L30.5335 9.8494H33L30.8477 0.17661H28.5705ZM28.962 2.78959L29.7696 6.42183H27.5578L28.962 2.78959ZM13.6739 0.176731L11.468 9.84928H14.1347L16.3395 0.176489H13.6739V0.176731ZM9.72894 0.176489L6.95333 6.76029L5.83056 1.16236C5.69882 0.537451 5.17855 0.17661 4.60079 0.17661H0.0635508L0 0.457492C0.931477 0.647166 1.9898 0.953089 2.63098 1.28042C3.02337 1.48038 3.13526 1.65518 3.26416 2.13033L5.39073 9.8494H8.20875L12.5292 0.17661H9.72894" fill="#1518E0"/>
</svg>
